<svg width="400" height="300" viewBox="0 0 400 300" fill="none" xmlns="http://www.w3.org/2000/svg">
<rect width="400" height="300" rx="32" fill="black"/>
<path d="M231.811 186.376C257.3 171.135 274.367 143.268 274.367 111.416C274.367 63.2063 235.287 24.1204 187.077 24.1204C138.861 24.1204 99.7809 63.2063 99.7809 111.416C99.7809 159.627 138.861 198.712 187.077 198.712H296.488V186.376L231.811 186.376ZM222.14 69.1071C231.187 63.8844 242.749 66.9822 247.971 76.0288C253.193 85.0754 250.096 96.643 241.05 101.866C232.003 107.082 220.441 103.985 215.219 94.9441C209.99 85.8918 213.094 74.3299 222.14 69.1071ZM215.213 127.433C220.441 118.386 232.003 115.289 241.05 120.511C250.097 125.74 253.194 137.301 247.972 146.348C242.749 155.395 231.187 158.492 222.135 153.27C213.094 148.047 209.99 136.479 215.213 127.433ZM187.077 40.8689C197.522 40.8689 205.986 49.3331 205.986 59.7785C205.986 70.224 197.522 78.7001 187.077 78.7001C176.631 78.7001 168.155 70.2236 168.155 59.7785C168.155 49.3335 176.631 40.8689 187.077 40.8689ZM195.805 111.416C195.805 116.243 191.897 120.145 187.077 120.145C182.25 120.145 178.348 116.243 178.348 111.416C178.348 106.59 182.25 102.688 187.077 102.688C191.897 102.688 195.805 106.59 195.805 111.416ZM126.176 76.0288C131.399 66.9822 142.967 63.8848 152.013 69.1071C161.06 74.3295 164.157 85.8918 158.935 94.9441C153.712 103.985 142.144 107.088 133.098 101.866C124.057 96.643 120.953 85.0754 126.176 76.0288ZM152.019 153.27C142.967 158.492 131.405 155.395 126.176 146.348C120.96 137.301 124.057 125.734 133.098 120.505C142.144 115.282 153.712 118.386 158.935 127.432C164.157 136.479 161.06 148.047 152.019 153.27ZM168.155 162.592C168.155 152.147 176.632 143.677 187.077 143.677C197.522 143.677 205.986 152.147 205.986 162.592C205.986 173.037 197.522 181.507 187.077 181.507C176.631 181.507 168.155 173.038 168.155 162.592Z" fill="white"/>
<g filter="url(#filter0_i_14_12)">
<path d="M96.08 255V225.2H100.48L111.68 240.72H109.48L120.48 225.2H124.88V255H120.2V230.76L121.96 231.24L110.72 246.6H110.24L99.24 231.24L100.8 230.76V255H96.08ZM141.041 255.48C138.961 255.48 137.054 254.987 135.321 254C133.614 253.013 132.254 251.667 131.241 249.96C130.228 248.253 129.721 246.32 129.721 244.16C129.721 241.973 130.228 240.04 131.241 238.36C132.254 236.653 133.614 235.32 135.321 234.36C137.028 233.373 138.934 232.88 141.041 232.88C143.174 232.88 145.081 233.373 146.761 234.36C148.468 235.32 149.814 236.653 150.801 238.36C151.814 240.04 152.321 241.973 152.321 244.16C152.321 246.347 151.814 248.293 150.801 250C149.788 251.707 148.428 253.053 146.721 254.04C145.014 255 143.121 255.48 141.041 255.48ZM141.041 251.28C142.321 251.28 143.454 250.973 144.441 250.36C145.428 249.747 146.201 248.907 146.761 247.84C147.348 246.747 147.641 245.52 147.641 244.16C147.641 242.8 147.348 241.587 146.761 240.52C146.201 239.453 145.428 238.613 144.441 238C143.454 237.387 142.321 237.08 141.041 237.08C139.788 237.08 138.654 237.387 137.641 238C136.654 238.613 135.868 239.453 135.281 240.52C134.721 241.587 134.441 242.8 134.441 244.16C134.441 245.52 134.721 246.747 135.281 247.84C135.868 248.907 136.654 249.747 137.641 250.36C138.654 250.973 139.788 251.28 141.041 251.28ZM162.623 255L154.143 233.36H159.063L165.583 251H163.783L170.303 233.36H175.263L166.743 255H162.623ZM178.335 255V233.36H182.855V255H178.335ZM178.335 230.4V225.2H182.855V230.4H178.335ZM198.3 255.48C196.14 255.48 194.22 254.987 192.54 254C190.887 252.987 189.593 251.627 188.66 249.92C187.727 248.187 187.26 246.253 187.26 244.12C187.26 241.933 187.727 240 188.66 238.32C189.62 236.64 190.9 235.32 192.5 234.36C194.1 233.373 195.913 232.88 197.94 232.88C199.567 232.88 201.02 233.16 202.3 233.72C203.58 234.28 204.66 235.053 205.54 236.04C206.42 237 207.087 238.107 207.54 239.36C208.02 240.613 208.26 241.947 208.26 243.36C208.26 243.707 208.247 244.067 208.22 244.44C208.193 244.813 208.14 245.16 208.06 245.48H190.82V241.88H205.5L203.34 243.52C203.607 242.213 203.513 241.053 203.06 240.04C202.633 239 201.967 238.187 201.06 237.6C200.18 236.987 199.14 236.68 197.94 236.68C196.74 236.68 195.673 236.987 194.74 237.6C193.807 238.187 193.087 239.04 192.58 240.16C192.073 241.253 191.873 242.587 191.98 244.16C191.847 245.627 192.047 246.907 192.58 248C193.14 249.093 193.913 249.947 194.9 250.56C195.913 251.173 197.06 251.48 198.34 251.48C199.647 251.48 200.753 251.187 201.66 250.6C202.593 250.013 203.327 249.253 203.86 248.32L207.54 250.12C207.113 251.133 206.447 252.053 205.54 252.88C204.66 253.68 203.593 254.32 202.34 254.8C201.113 255.253 199.767 255.48 198.3 255.48ZM218.391 255V229.4H210.471V225.2H230.871V229.4H223.071V255H218.391ZM233.96 255V233.36H238.48V255H233.96ZM233.96 230.4V225.2H238.48V230.4H233.96ZM243.765 255V233.36H248.085V238.04L247.525 237.32C247.978 235.853 248.805 234.747 250.005 234C251.205 233.253 252.578 232.88 254.125 232.88C255.858 232.88 257.392 233.347 258.725 234.28C260.085 235.187 260.992 236.4 261.445 237.92L260.165 238.04C260.805 236.307 261.778 235.013 263.085 234.16C264.418 233.307 265.938 232.88 267.645 232.88C269.138 232.88 270.485 233.227 271.685 233.92C272.912 234.613 273.885 235.573 274.605 236.8C275.325 238.027 275.685 239.427 275.685 241V255H271.165V242.24C271.165 241.147 270.965 240.227 270.565 239.48C270.192 238.707 269.658 238.12 268.965 237.72C268.298 237.293 267.512 237.08 266.605 237.08C265.698 237.08 264.898 237.293 264.205 237.72C263.512 238.12 262.965 238.707 262.565 239.48C262.165 240.253 261.965 241.173 261.965 242.24V255H257.485V242.24C257.485 241.147 257.285 240.227 256.885 239.48C256.512 238.707 255.978 238.12 255.285 237.72C254.618 237.293 253.818 237.08 252.885 237.08C251.978 237.08 251.178 237.293 250.485 237.72C249.792 238.12 249.245 238.707 248.845 239.48C248.472 240.253 248.285 241.173 248.285 242.24V255H243.765ZM290.683 255.48C288.523 255.48 286.603 254.987 284.923 254C283.269 252.987 281.976 251.627 281.043 249.92C280.109 248.187 279.643 246.253 279.643 244.12C279.643 241.933 280.109 240 281.043 238.32C282.003 236.64 283.283 235.32 284.883 234.36C286.483 233.373 288.296 232.88 290.323 232.88C291.949 232.88 293.403 233.16 294.683 233.72C295.963 234.28 297.043 235.053 297.923 236.04C298.803 237 299.469 238.107 299.923 239.36C300.403 240.613 300.643 241.947 300.643 243.36C300.643 243.707 300.629 244.067 300.603 244.44C300.576 244.813 300.523 245.16 300.443 245.48H283.203V241.88H297.883L295.723 243.52C295.989 242.213 295.896 241.053 295.443 240.04C295.016 239 294.349 238.187 293.443 237.6C292.563 236.987 291.523 236.68 290.323 236.68C289.123 236.68 288.056 236.987 287.123 237.6C286.189 238.187 285.469 239.04 284.963 240.16C284.456 241.253 284.256 242.587 284.363 244.16C284.229 245.627 284.429 246.907 284.963 248C285.523 249.093 286.296 249.947 287.283 250.56C288.296 251.173 289.443 251.48 290.723 251.48C292.029 251.48 293.136 251.187 294.043 250.6C294.976 250.013 295.709 249.253 296.243 248.32L299.923 250.12C299.496 251.133 298.829 252.053 297.923 252.88C297.043 253.68 295.976 254.32 294.723 254.8C293.496 255.253 292.149 255.48 290.683 255.48Z" fill="white"/>
</g>
<defs>
<filter id="filter0_i_14_12" x="96.08" y="225.2" width="204.563" height="34.28" filterUnits="userSpaceOnUse" color-interpolation-filters="sRGB">
<feFlood flood-opacity="0" result="BackgroundImageFix"/>
<feBlend mode="normal" in="SourceGraphic" in2="BackgroundImageFix" result="shape"/>
<feColorMatrix in="SourceAlpha" type="matrix" values="0 0 0 0 0 0 0 0 0 0 0 0 0 0 0 0 0 0 127 0" result="hardAlpha"/>
<feOffset dy="4"/>
<feGaussianBlur stdDeviation="2"/>
<feComposite in2="hardAlpha" operator="arithmetic" k2="-1" k3="1"/>
<feColorMatrix type="matrix" values="0 0 0 0 0 0 0 0 0 0 0 0 0 0 0 0 0 0 0.25 0"/>
<feBlend mode="normal" in2="shape" result="effect1_innerShadow_14_12"/>
</filter>
</defs>
</svg>
